<svg width="106" height="44" viewBox="0 0 106 44" fill="none" xmlns="http://www.w3.org/2000/svg">
<g clip-path="url(#clip0_2772_4480)">
<mask id="mask0_2772_4480" style="mask-type:luminance" maskUnits="userSpaceOnUse" x="0" y="1" width="106" height="64">
<path d="M106 1.19141H0V64.5442H106V1.19141Z" fill="white"/>
</mask>
<g mask="url(#mask0_2772_4480)">
<path d="M97.6206 19.1705H106V43.1211H97.6206V39.8164C94.0759 42.2943 89.7561 43.7546 85.051 43.7546C73.1244 43.7546 63.4543 34.2247 63.4543 22.4708C63.4543 10.7213 73.1221 1.19141 85.0488 1.19141C90.399 1.19141 95.2977 3.09648 99.1023 6.27311L92.6556 12.5635C90.465 10.9751 87.8207 10.0855 85.0488 10.0855C81.6955 10.0855 78.5383 11.3571 76.2177 13.707C73.8333 16.0569 72.4792 19.1705 72.4792 22.4752C72.4792 25.7799 73.8333 28.8914 76.2177 31.2435C78.5383 33.5305 81.6978 34.865 85.0488 34.865C88.3997 34.865 91.5592 33.5305 93.9437 31.2435C94.395 30.7987 96.2642 28.8937 96.8455 27.4311H87.1756V19.1705H97.6206ZM97.5545 27.4289L97.6183 27.4918V27.4289H97.5545Z" fill="white"/>
<path d="M48.5916 1.82812H58.6489V43.1243H48.5916V1.82812Z" fill="white"/>
<path fill-rule="evenodd" clip-rule="evenodd" d="M58.6468 1.82812L48.5894 9.67084V1.82812H58.6468Z" fill="#B2B2B2"/>
<path d="M33.4572 43.1243L30.4277 37.3439H14.6326L11.603 43.1243H0L22.5632 1.82812L45.0625 43.1243H33.4572ZM18.6948 29.5911H26.3655L22.5632 22.3481L18.6948 29.5911Z" fill="white"/>
</g>
</g>
<defs>
<clipPath id="clip0_2772_4480">
<rect width="106" height="44" fill="white"/>
</clipPath>
</defs>
</svg>
