<svg width="120" height="44" viewBox="0 0 120 44" fill="none" xmlns="http://www.w3.org/2000/svg">
<g clip-path="url(#clip0_2772_4554)">
<path fill-rule="evenodd" clip-rule="evenodd" d="M50.6465 5.20287C54.028 2.90574 58.2524 1.47257 62.8834 1.05144C66.2994 0.740762 70.7609 1.05791 74.2724 1.86085C75.5794 2.15974 77.7894 2.84603 78.0936 3.04739C78.2224 3.1326 78.0324 4.05121 77.1822 7.45421C76.5914 9.8188 76.0936 11.7691 76.0758 11.7884C76.058 11.8077 75.604 11.6433 75.0664 11.4233C72.7822 10.4881 69.5007 9.89069 66.5833 9.87903C63.7707 9.86775 61.8504 10.2855 59.8242 11.3491C59.0698 11.7451 58.5627 12.1448 57.7091 13.0164C56.7614 13.9837 56.496 14.3508 56.0089 15.3674C55.084 17.297 54.684 19.2572 54.6798 21.8818C54.6684 28.7615 57.7084 33.1878 63.2304 34.3319C64.0853 34.509 64.6625 34.5343 66.3909 34.4704C67.5538 34.4273 68.6869 34.3563 68.9085 34.3127L69.3116 34.2329V30.1261V26.0192L79.7305 17.1427L79.6989 29.0826L79.6673 41.0225L78.8133 41.3171C75.9169 42.3159 70.7004 43.0117 66.1082 43.0113C56.1536 43.0108 48.414 39.0704 44.9624 32.2452C44.1067 30.5536 43.6007 29.0815 43.1754 27.0466C42.8595 25.5352 42.8411 25.2599 42.8373 21.9613C42.8336 18.8395 42.8625 18.3273 43.1115 17.0721C43.6451 14.3829 44.6585 11.8577 46.0313 9.79647C46.9585 8.40426 49.1609 6.21201 50.6465 5.20287ZM95.55 3.75384C98.504 2.28756 101.866 1.40155 106.022 0.994376C108.575 0.744183 113.506 1.13272 116.315 1.80556C117.582 2.10888 119.29 2.67445 119.296 2.79213C119.298 2.83866 118.815 4.82803 118.223 7.2129L117.146 11.5491L116.7 11.3184C114.13 9.99101 109.095 9.41884 105.973 10.0993C101.554 11.0628 98.8873 13.6375 97.8069 17.9852C97.5585 18.9836 97.5284 19.4104 97.5344 21.8347C97.5405 24.3854 97.5625 24.6426 97.8753 25.8291C98.3794 27.7415 99.1629 29.2459 100.3 30.484C101.843 32.1644 103.562 33.1427 106.055 33.7577C109.203 34.5347 113.574 34.3209 116.916 33.2268C117.553 33.0184 118.09 32.8662 118.109 32.8889C118.128 32.9117 118.549 34.6707 119.044 36.798C119.539 38.9252 119.969 40.7305 119.998 40.8098C120.029 40.8927 119.692 41.0946 119.207 41.2834C112.011 44.0871 102.414 43.5793 95.4751 40.0277C89.5169 36.9782 86.0576 32.0735 85.1229 25.3499C84.8798 23.602 84.8845 19.8954 85.1318 18.1734C86.0865 11.5247 89.5489 6.73281 95.55 3.75384ZM0.411871 41.2691C0.933747 39.701 13.5785 2.57376 13.6929 2.27361C13.7729 2.06375 14.2416 2.05258 21.7249 2.0834L29.6722 2.116L35.72 20.1227C39.0462 30.0264 42.1005 39.1142 42.5075 40.318L43.2476 42.5066L36.7218 42.4736L30.1962 42.4408L29.0635 38.3196L27.9304 34.1983L21.6155 34.1655L15.3005 34.1327L14.1691 38.2868L13.0376 42.4408L6.51887 42.4736L0 42.5066L0.411871 41.2691ZM24.5822 22.1801C24.1276 20.5603 23.2995 17.412 22.7416 15.1839C22.184 12.9559 21.6758 11.1153 21.6125 11.0937C21.5495 11.0722 21.1133 12.6384 20.6436 14.5741C19.984 17.2925 18.4049 23.1141 17.7712 25.1633C17.7069 25.3713 17.9426 25.3853 21.5556 25.3853C24.1053 25.3853 25.4085 25.3413 25.4085 25.2553C25.4085 25.1838 25.0367 23.7998 24.5822 22.1801Z" fill="white"/>
<path d="M79.7307 17.1426H70.6147H61.4985V21.5808V26.0191H65.4053H69.3118L79.7307 17.1426Z" fill="#D2002D"/>
</g>
<defs>
<clipPath id="clip0_2772_4554">
<rect width="120" height="44" fill="white"/>
</clipPath>
</defs>
</svg>
