<svg width="16" height="16" viewBox="0 0 16 16" fill="none" xmlns="http://www.w3.org/2000/svg">
<g clip-path="url(#clip0_2731_4279)">
<mask id="path-1-inside-1_2731_4279" fill="white">
<path d="M16 4.44446V15.2778C16 15.6389 15.6522 16 15.3043 16H0.695652C0.347826 16 0 15.6389 0 15.2778V4.44446"/>
</mask>
<path d="M17 4.44446C17 3.89217 16.5523 3.44446 16 3.44446C15.4477 3.44446 15 3.89217 15 4.44446H16H17ZM1 4.44446C1 3.89217 0.552285 3.44446 0 3.44446C-0.552285 3.44446 -1 3.89217 -1 4.44446H0H1ZM16 4.44446H15V15.2778H16H17V4.44446H16ZM16 15.2778H15C15 15.208 15.0164 15.159 15.0281 15.133C15.0398 15.107 15.0522 15.0911 15.0624 15.0806C15.0723 15.0702 15.0908 15.054 15.1238 15.038C15.1568 15.022 15.2182 15 15.3043 15V16V17C15.817 17 16.2361 16.745 16.5028 16.4681C16.7719 16.1887 17 15.7706 17 15.2778H16ZM15.3043 16V15H0.695652V16V17H15.3043V16ZM0.695652 16V15C0.781801 15 0.843207 15.022 0.87623 15.038C0.909168 15.054 0.927656 15.0702 0.937622 15.0806C0.94775 15.0911 0.960199 15.107 0.971875 15.133C0.983565 15.159 1 15.208 1 15.2778H0H-1C-1 15.7706 -0.77188 16.1887 -0.50284 16.4681C-0.236083 16.745 0.183024 17 0.695652 17V16ZM0 15.2778H1V4.44446H0H-1V15.2778H0Z" fill="white" mask="url(#path-1-inside-1_2731_4279)"/>
<path d="M7.92676 0.520508C7.9688 0.493091 8.0312 0.493092 8.07324 0.520508C8.08226 0.526427 8.09218 0.532763 8.10156 0.538086L15.1104 4.51465L8.10547 10.1221C8.0921 10.1328 8.0786 10.1442 8.06641 10.1562C8.06492 10.1577 8.05617 10.1669 8.02637 10.167C8.00998 10.167 7.98797 10.1638 7.96289 10.1553L7.87988 10.1104L0.888672 4.51465L7.89844 0.538086C7.90782 0.532763 7.91774 0.526427 7.92676 0.520508Z" stroke="white" stroke-miterlimit="10" stroke-linecap="round" stroke-linejoin="round"/>
</g>
<defs>
<clipPath id="clip0_2731_4279">
<rect width="16" height="16" fill="white"/>
</clipPath>
</defs>
</svg>
