<svg width="18" height="18" viewBox="0 0 18 18" fill="none" xmlns="http://www.w3.org/2000/svg">
<path d="M9.26774 14.0368L13.2387 16.4956C13.4149 16.6047 13.646 16.5065 13.6898 16.3039L16.8727 1.58833C16.9251 1.34636 16.6783 1.14871 16.4536 1.2526L0.550198 8.60528C0.324784 8.70949 0.316368 9.02681 0.535941 9.14283L4.10391 11.0281C4.19486 11.0761 4.30409 11.0742 4.39333 11.0231L10.3343 7.61549C10.6389 7.4408 10.9441 7.84173 10.6947 8.08884L6.03886 12.7014C5.98199 12.7578 5.95 12.8345 5.95 12.9146V16.2805C5.95 16.5471 6.27175 16.6812 6.46114 16.4936L8.89866 14.0787C8.9972 13.9811 9.14981 13.9638 9.26774 14.0368Z" stroke="white"/>
</svg>
