<svg width="184" height="51" viewBox="0 0 184 51" fill="none" xmlns="http://www.w3.org/2000/svg">
<g clip-path="url(#clip0_172_2515)">
<path fill-rule="evenodd" clip-rule="evenodd" d="M6.70819 1.15918V17.4909L16.463 7.87793V1.15918H43.9386C46.7975 1.16435 49.1137 3.50048 49.1188 6.38383V45.7754C49.1137 48.6588 46.7975 50.9949 43.9386 51.0001H16.3792V44.0464L6.78272 34.3583V51.0001H5.1709C2.31571 50.9898 0.00510765 48.6551 0 45.7754V6.38383C0.00510765 3.50414 2.31571 1.16952 5.1709 1.15918H6.70819ZM122.369 29.8666L129.067 47.4293H125.62L124.26 43.8115H117.16L115.735 47.4293H112.297L119.005 29.8666H122.369ZM111.43 29.8666V33.1555H108.253V47.4293H104.89V33.1555H101.797V29.8666H111.43ZM80.666 29.8666L87.3741 47.4293H83.9269L82.5573 43.8115H75.4578L74.0416 47.4293H70.5944L77.3119 29.8666H80.666ZM60.3364 29.8666V35.9087L65.0601 29.8666H69.0478L62.9731 37.6941L69.644 47.4293H65.7123L60.3364 39.6299V47.4293H56.9916V29.8666H60.3364ZM97.5575 30.3928C98.3861 30.7384 99.0843 31.3406 99.5514 32.1124C100.048 32.9662 100.299 33.9421 100.278 34.9315C100.324 36.03 99.9949 37.1111 99.3464 37.9948C98.685 38.8196 97.7815 39.4118 96.7656 39.6863C95.616 39.9174 94.443 40.0089 93.2718 39.9588V47.4011H89.9549L89.927 29.8666H93.4395C94.8324 29.7889 96.2278 29.9672 97.5575 30.3928ZM32.6838 6.56237H22.1091L9.06537 25.5064L21.4848 44.0088H32.4788L18.2705 25.5722L32.6838 6.56237ZM79.0169 34.565L76.6876 40.5978H81.3461L79.0169 34.565ZM120.71 34.565L118.39 40.5978H123.049L120.71 34.565ZM94.1755 33.1367H93.2438V36.7357H94.2966C94.8774 36.7657 95.4592 36.7022 96.0203 36.5477C96.3312 36.4429 96.5995 36.2383 96.7842 35.9651C96.9763 35.6663 97.0738 35.3156 97.0638 34.9597C97.1014 34.3604 96.8027 33.7905 96.2905 33.4844C95.6242 33.1958 94.8981 33.0765 94.1755 33.1367ZM99.6539 5.98916C100.626 6.82868 101.158 8.07364 101.098 9.36263C101.105 10.004 100.995 10.6413 100.772 11.242C100.366 12.0376 99.7334 12.6923 98.9551 13.1214C100.879 13.8505 102.114 15.75 102.011 17.8198C102.07 19.3086 101.477 20.7484 100.39 21.7571C99.2332 22.7619 97.7412 23.2859 96.2159 23.223C95.2189 23.2399 94.2302 23.0379 93.3184 22.631C92.2055 22.0094 91.2492 21.1381 90.5233 20.0844L93.1041 18.1957C93.7418 19.3123 94.9021 20.0215 96.1786 20.075C96.8613 20.1 97.5278 19.8614 98.042 19.4079C98.5259 18.9493 98.7878 18.3009 98.7594 17.6319C98.7805 16.9577 98.5242 16.3047 98.0513 15.8277C97.5855 15.3484 96.6072 15.1135 95.1351 15.1135H94.4271V12.0971H95.1351C95.852 12.1508 96.5629 11.9331 97.129 11.4863C97.5888 11.0728 97.8388 10.4719 97.8091 9.85127C97.8386 9.29445 97.6319 8.75124 97.2408 8.35717C96.8336 7.9797 96.293 7.78328 95.7407 7.81215C94.8636 7.87001 94.0425 8.26725 93.4488 8.92098L91.5015 6.72212C92.2435 5.96603 93.1402 5.38238 94.1289 5.01189C94.7601 4.83396 95.4115 4.73921 96.0668 4.72998C97.3754 4.69028 98.6525 5.1386 99.6539 5.98916ZM80.1069 4.76757C82.5041 4.73919 84.8053 5.71591 86.4611 7.46447C88.1214 9.11367 89.0715 11.3498 89.1165 13.6904L89.1164 14.0423C89.1697 16.4839 88.2226 18.8396 86.4984 20.5543C84.7837 22.2716 82.4613 23.2291 80.0449 23.2152C77.6285 23.2009 75.3172 22.2163 73.6224 20.4791C71.9279 18.7536 70.9914 16.4142 71.0229 13.9859C71.0117 12.3606 71.4297 10.7616 72.2341 9.35324C73.0222 7.95261 74.1716 6.79336 75.5603 5.99856C76.9402 5.18739 78.5098 4.76243 80.1069 4.76757ZM108.496 5.19983V11.834H109.222C110.39 11.8025 111.554 11.9644 112.67 12.3132C113.637 12.6831 114.471 13.338 115.064 14.1926C116.352 16.0855 116.407 18.5678 115.204 20.5167C114.705 21.2794 114.009 21.8902 113.191 22.2833C112.194 22.6719 111.129 22.8479 110.061 22.8001L105.188 22.7719V5.19983H108.496ZM142.661 5.19983V11.834H148.484V5.19983H151.838V22.7719H148.484V15.0665H142.661V22.7719H139.297V5.19983H142.661ZM164.472 5.19983L171.171 22.7719H167.723L166.363 19.1542H159.264L157.838 22.7719H154.4L161.108 5.19983H164.472ZM184 5.19983V22.7719H180.683V15.7055H179.863L176.351 22.7719H172.727L176.714 15.1511C174.585 14.7043 173.114 12.7343 173.276 10.5466C173.259 9.78184 173.382 9.02045 173.64 8.30079C173.866 7.69332 174.215 7.13981 174.664 6.67513C175.111 6.25331 175.641 5.93288 176.22 5.73545C176.669 5.55424 177.139 5.4311 177.618 5.36897C177.972 5.36897 178.932 5.29379 180.525 5.22802L184 5.19983ZM121.744 5.19983V22.7719H118.483V5.19983H121.744ZM60.2526 5.19983V11.2514L64.911 5.19983H68.8987L62.8147 13.0368L69.5695 22.7719H65.6378L60.2526 14.9726V22.7719H56.8985L56.8612 5.19983H60.2526ZM133.353 5.73545C134.186 6.07892 134.885 6.68565 135.347 7.46447C135.846 8.31706 136.098 9.29377 136.074 10.2835C136.121 11.3793 135.792 12.458 135.142 13.3375C134.485 14.1729 133.575 14.7699 132.552 15.0383C131.405 15.2698 130.236 15.3644 129.067 15.3202V22.7531H125.741L125.723 5.19983H129.244C130.635 5.12967 132.026 5.31107 133.353 5.73545ZM80.079 8.03768H80.1069C78.5752 7.99924 77.0991 8.61729 76.0448 9.73851C74.9344 10.8858 74.3356 12.4399 74.3864 14.0423C74.316 15.8252 75.0866 17.5364 76.464 18.6561C77.5096 19.5324 78.8315 20.0024 80.1908 19.9811C81.7069 20.0034 83.1619 19.3788 84.1971 18.2615C86.4075 15.8831 86.4075 12.1826 84.1971 9.80428C83.1391 8.64698 81.6394 8.0036 80.079 8.03768ZM109.185 14.8222H108.496V19.5864H109.334C110.28 19.6769 111.232 19.4979 112.083 19.0696C112.593 18.639 112.855 17.9792 112.781 17.3124C112.781 15.6491 111.589 14.8222 109.185 14.8222ZM162.813 9.89825L160.484 15.9216H165.143L162.813 9.89825ZM177.972 8.62968C177.592 8.72185 177.26 8.95292 177.04 9.27806C176.803 9.63974 176.683 10.0664 176.696 10.4997C176.634 11.093 176.899 11.6729 177.385 12.0125C178.07 12.3523 178.832 12.5016 179.593 12.4448H180.683V8.47933H179.751C179.154 8.45623 178.557 8.50672 177.972 8.62968ZM130.018 8.47933H129.086L129.049 12.0689H130.13C130.712 12.0968 131.296 12.0398 131.862 11.8998C132.171 11.7862 132.438 11.5795 132.626 11.3078C132.818 11.0089 132.916 10.6583 132.906 10.3023C132.946 9.70009 132.642 9.12744 132.123 8.82701C131.46 8.53928 130.737 8.4199 130.018 8.47933Z" fill="white"/>
</g>
<defs>
<clipPath id="clip0_172_2515">
<rect width="184" height="51" fill="white"/>
</clipPath>
</defs>
</svg>
