<svg width="128" height="68" viewBox="0 0 128 68" fill="none" xmlns="http://www.w3.org/2000/svg">
<g clip-path="url(#clip0_2731_4260)">
<path d="M40.7432 18.4209C40.7432 20.9007 40.0576 22.8346 38.6865 24.2227C37.3239 25.6107 35.4196 26.3047 32.9736 26.3047C30.4176 26.3047 28.3779 25.4414 26.8545 23.7148C25.3395 21.9798 24.582 19.6566 24.582 16.7451C24.582 13.8844 25.3395 11.6077 26.8545 9.91504C28.3695 8.22233 30.4092 7.37598 32.9736 7.37598C34.9541 7.37598 36.6383 7.92188 38.0264 9.01367C39.4229 10.097 40.2904 11.5485 40.6289 13.3682H38.2295C37.8486 12.1325 37.1969 11.1761 36.2744 10.499C35.3604 9.82194 34.2601 9.4834 32.9736 9.4834C31.0863 9.4834 29.6051 10.1266 28.5303 11.4131C27.4639 12.6911 26.9307 14.4642 26.9307 16.7324C26.9307 19.0345 27.4723 20.8542 28.5557 22.1914C29.639 23.5286 31.1117 24.1973 32.9736 24.1973C34.5986 24.1973 35.9189 23.7191 36.9346 22.7627C37.9502 21.7979 38.458 20.5495 38.458 19.0176V18.6875H33.291V16.6816H40.7432V18.4209ZM48.8555 14.1299C47.7806 14.1299 46.8877 14.4854 46.1768 15.1963C45.4743 15.9072 45.085 16.8424 45.0088 18.002H52.5371C52.5117 16.8424 52.1605 15.9072 51.4834 15.1963C50.8148 14.4854 49.9388 14.1299 48.8555 14.1299ZM52.4863 22.0898H54.6699C54.4837 23.2663 53.8574 24.2354 52.791 24.9971C51.7246 25.7503 50.4593 26.127 48.9951 26.127C47.0739 26.127 45.5462 25.5049 44.4121 24.2607C43.2865 23.0166 42.7236 21.3324 42.7236 19.208C42.7236 17.0837 43.2865 15.3825 44.4121 14.1045C45.5378 12.8265 47.0316 12.1875 48.8936 12.1875C50.7217 12.1875 52.1689 12.7926 53.2354 14.0029C54.3018 15.2048 54.835 16.8382 54.835 18.9033V19.7666H45.0088V19.8936C45.0088 21.1969 45.377 22.238 46.1133 23.0166C46.8496 23.7952 47.8271 24.1846 49.0459 24.1846C49.9007 24.1846 50.637 23.9984 51.2549 23.626C51.8812 23.2451 52.2917 22.7331 52.4863 22.0898ZM57.1582 26V12.3145H59.2402V14.5361H59.291C60.1628 12.9704 61.6523 12.1875 63.7598 12.1875C65.2663 12.1875 66.4554 12.6403 67.3271 13.5459C68.1989 14.443 68.6348 15.6702 68.6348 17.2275V26H66.4258V17.6084C66.4258 16.4912 66.138 15.6364 65.5625 15.0439C64.9954 14.4515 64.1745 14.1553 63.0996 14.1553C61.974 14.1553 61.0684 14.5107 60.3828 15.2217C59.7057 15.9326 59.3672 16.8763 59.3672 18.0527V26H57.1582ZM71.707 26V12.3145H73.916V26H71.707ZM72.8115 10.1055C72.4307 10.1055 72.1006 9.97005 71.8213 9.69922C71.5505 9.41992 71.415 9.08984 71.415 8.70898C71.415 8.31966 71.5505 7.98958 71.8213 7.71875C72.1006 7.44792 72.4307 7.3125 72.8115 7.3125C73.2008 7.3125 73.5309 7.44792 73.8018 7.71875C74.0726 7.98958 74.208 8.31966 74.208 8.70898C74.208 9.08984 74.0726 9.41992 73.8018 9.69922C73.5309 9.97005 73.2008 10.1055 72.8115 10.1055ZM76.8105 16.1357C76.8105 14.9847 77.2803 14.041 78.2197 13.3047C79.1676 12.5684 80.3864 12.2002 81.876 12.2002C83.264 12.2002 84.4277 12.5726 85.3672 13.3174C86.3151 14.0537 86.8102 14.9847 86.8525 16.1104H84.7324C84.6647 15.4671 84.3685 14.9593 83.8438 14.5869C83.319 14.2145 82.6377 14.0283 81.7998 14.0283C80.9535 14.0283 80.2721 14.2103 79.7559 14.5742C79.2396 14.9382 78.9814 15.4206 78.9814 16.0215C78.9814 16.9355 79.7516 17.583 81.292 17.9639L83.374 18.4844C84.7536 18.8314 85.7227 19.2799 86.2812 19.8301C86.8483 20.3717 87.1318 21.1419 87.1318 22.1406C87.1318 23.3086 86.624 24.265 85.6084 25.0098C84.6012 25.7546 83.3063 26.127 81.7236 26.127C80.251 26.127 79.028 25.763 78.0547 25.0352C77.0814 24.2988 76.5397 23.3382 76.4297 22.1533H78.6514C78.7614 22.8473 79.0915 23.3805 79.6416 23.7529C80.2002 24.1169 80.945 24.2988 81.876 24.2988C82.807 24.2988 83.5433 24.1211 84.085 23.7656C84.6351 23.4017 84.9102 22.9108 84.9102 22.293C84.9102 21.8105 84.7493 21.4297 84.4277 21.1504C84.1061 20.8626 83.556 20.6172 82.7773 20.4141L80.3779 19.792C77.9997 19.1742 76.8105 17.9554 76.8105 16.1357ZM99.7637 24.2354C98.6211 25.4964 97.0892 26.127 95.168 26.127C93.2467 26.127 91.7148 25.4964 90.5723 24.2354C89.4297 22.9743 88.8584 21.2816 88.8584 19.1572C88.8584 17.0329 89.4297 15.3402 90.5723 14.0791C91.7148 12.818 93.2467 12.1875 95.168 12.1875C97.0892 12.1875 98.6211 12.818 99.7637 14.0791C100.906 15.3402 101.478 17.0329 101.478 19.1572C101.478 21.2816 100.906 22.9743 99.7637 24.2354ZM95.168 24.1592C96.446 24.1592 97.4404 23.7191 98.1514 22.8389C98.8708 21.9502 99.2305 20.723 99.2305 19.1572C99.2305 17.583 98.8708 16.3558 98.1514 15.4756C97.4404 14.5954 96.446 14.1553 95.168 14.1553C93.89 14.1553 92.8913 14.5996 92.1719 15.4883C91.4609 16.3685 91.1055 17.5915 91.1055 19.1572C91.1055 20.723 91.4652 21.9502 92.1846 22.8389C92.904 23.7191 93.8984 24.1592 95.168 24.1592ZM104.524 26V14.1426H102.62V12.3145H104.524V11.0449C104.524 9.77539 104.812 8.84863 105.388 8.26465C105.972 7.68066 106.898 7.38867 108.168 7.38867C108.574 7.38867 108.985 7.42676 109.399 7.50293V9.33105C109.086 9.26335 108.743 9.22949 108.371 9.22949C107.796 9.22949 107.381 9.37337 107.127 9.66113C106.873 9.94043 106.742 10.4017 106.733 11.0449V12.3145H109.399V14.1426H106.733V26H104.524ZM112.522 9.22949H114.731V12.3145H117.397V14.1426H114.731V22.3564C114.731 22.9827 114.867 23.444 115.138 23.7402C115.417 24.0365 115.849 24.1846 116.433 24.1846C116.813 24.1846 117.131 24.1634 117.385 24.1211V25.9873C117.063 26.0635 116.589 26.1016 115.963 26.1016C114.727 26.1016 113.843 25.8223 113.31 25.2637C112.785 24.6966 112.522 23.7572 112.522 22.4453V14.1426H110.618V12.3145H112.522V9.22949Z" fill="white"/>
<circle cx="13.5" cy="16.5" r="2.5" fill="white"/>
<path d="M24.2969 49.9297C24.2969 49.2214 24.5859 48.6406 25.1641 48.1875C25.7474 47.7344 26.4974 47.5078 27.4141 47.5078C28.2682 47.5078 28.9844 47.737 29.5625 48.1953C30.1458 48.6484 30.4505 49.2214 30.4766 49.9141H29.1719C29.1302 49.5182 28.9479 49.2057 28.625 48.9766C28.3021 48.7474 27.8828 48.6328 27.3672 48.6328C26.8464 48.6328 26.4271 48.7448 26.1094 48.9688C25.7917 49.1927 25.6328 49.4896 25.6328 49.8594C25.6328 50.4219 26.1068 50.8203 27.0547 51.0547L28.3359 51.375C29.1849 51.5885 29.7812 51.8646 30.125 52.2031C30.474 52.5365 30.6484 53.0104 30.6484 53.625C30.6484 54.3438 30.3359 54.9323 29.7109 55.3906C29.0911 55.849 28.2943 56.0781 27.3203 56.0781C26.4141 56.0781 25.6615 55.8542 25.0625 55.4062C24.4635 54.9531 24.1302 54.362 24.0625 53.6328H25.4297C25.4974 54.0599 25.7005 54.388 26.0391 54.6172C26.3828 54.8411 26.8411 54.9531 27.4141 54.9531C27.987 54.9531 28.4401 54.8438 28.7734 54.625C29.112 54.401 29.2812 54.099 29.2812 53.7188C29.2812 53.4219 29.1823 53.1875 28.9844 53.0156C28.7865 52.8385 28.4479 52.6875 27.9688 52.5625L26.4922 52.1797C25.0286 51.7995 24.2969 51.0495 24.2969 49.9297ZM32.5703 45.6797H33.9297V47.5781H35.5703V48.7031H33.9297V53.7578C33.9297 54.1432 34.013 54.4271 34.1797 54.6094C34.3516 54.7917 34.6172 54.8828 34.9766 54.8828C35.2109 54.8828 35.4062 54.8698 35.5625 54.8438V55.9922C35.3646 56.0391 35.0729 56.0625 34.6875 56.0625C33.9271 56.0625 33.3828 55.8906 33.0547 55.5469C32.7318 55.1979 32.5703 54.6198 32.5703 53.8125V48.7031H31.3984V47.5781H32.5703V45.6797ZM44.1016 47.5781V56H42.8203V54.6094H42.7891C42.2578 55.5885 41.3385 56.0781 40.0312 56.0781C39.1094 56.0781 38.3802 55.8021 37.8438 55.25C37.3073 54.6927 37.0391 53.9349 37.0391 52.9766V47.5781H38.3984V52.7422C38.3984 53.4297 38.5729 53.9557 38.9219 54.3203C39.276 54.6849 39.7839 54.8672 40.4453 54.8672C41.138 54.8672 41.6927 54.6484 42.1094 54.2109C42.5312 53.7734 42.7422 53.1927 42.7422 52.4688V47.5781H44.1016ZM49.1484 56.0781C48.0859 56.0781 47.2188 55.6849 46.5469 54.8984C45.875 54.1068 45.5391 53.0703 45.5391 51.7891C45.5391 50.513 45.8724 49.4792 46.5391 48.6875C47.2057 47.8958 48.0651 47.5 49.1172 47.5C49.7161 47.5 50.2474 47.625 50.7109 47.875C51.1797 48.125 51.5443 48.4818 51.8047 48.9453H51.8359V44.2344H53.1953V56H51.8984V54.5781H51.875C51.599 55.0625 51.2266 55.4349 50.7578 55.6953C50.2943 55.9505 49.7578 56.0781 49.1484 56.0781ZM49.3906 48.7109C48.651 48.7109 48.0547 48.9922 47.6016 49.5547C47.1536 50.1172 46.9297 50.862 46.9297 51.7891C46.9297 52.7214 47.1536 53.4688 47.6016 54.0312C48.0547 54.5885 48.651 54.8672 49.3906 54.8672C50.1198 54.8672 50.7109 54.5833 51.1641 54.0156C51.6172 53.4479 51.8438 52.7057 51.8438 51.7891C51.8438 50.8724 51.6172 50.1302 51.1641 49.5625C50.7109 48.9948 50.1198 48.7109 49.3906 48.7109ZM55.2031 56V47.5781H56.5625V56H55.2031ZM55.8828 46.2188C55.6484 46.2188 55.4453 46.1354 55.2734 45.9688C55.1068 45.7969 55.0234 45.5938 55.0234 45.3594C55.0234 45.1198 55.1068 44.9167 55.2734 44.75C55.4453 44.5833 55.6484 44.5 55.8828 44.5C56.1224 44.5 56.3255 44.5833 56.4922 44.75C56.6589 44.9167 56.7422 45.1198 56.7422 45.3594C56.7422 45.5938 56.6589 45.7969 56.4922 45.9688C56.3255 46.1354 56.1224 46.2188 55.8828 46.2188ZM64.7812 54.9141C64.0781 55.6901 63.1354 56.0781 61.9531 56.0781C60.7708 56.0781 59.8281 55.6901 59.125 54.9141C58.4219 54.138 58.0703 53.0964 58.0703 51.7891C58.0703 50.4818 58.4219 49.4401 59.125 48.6641C59.8281 47.888 60.7708 47.5 61.9531 47.5C63.1354 47.5 64.0781 47.888 64.7812 48.6641C65.4844 49.4401 65.8359 50.4818 65.8359 51.7891C65.8359 53.0964 65.4844 54.138 64.7812 54.9141ZM61.9531 54.8672C62.7396 54.8672 63.3516 54.5964 63.7891 54.0547C64.2318 53.5078 64.4531 52.7526 64.4531 51.7891C64.4531 50.8203 64.2318 50.0651 63.7891 49.5234C63.3516 48.9818 62.7396 48.7109 61.9531 48.7109C61.1667 48.7109 60.5521 48.9844 60.1094 49.5312C59.6719 50.0729 59.4531 50.8255 59.4531 51.7891C59.4531 52.7526 59.6745 53.5078 60.1172 54.0547C60.5599 54.5964 61.1719 54.8672 61.9531 54.8672Z" fill="white"/>
<rect y="1" width="1" height="25" fill="white"/>
<rect x="73" y="45" width="1" height="23" fill="white"/>
<rect y="35" width="1" height="33" fill="white"/>
<rect x="127" width="1" height="36" fill="white"/>
<rect x="128" width="1.00001" height="128" transform="rotate(90 128 0)" fill="white"/>
<rect x="128" y="35" width="1.00001" height="128" transform="rotate(90 128 35)" fill="white"/>
<rect x="74" y="67" width="1" height="74" transform="rotate(90 74 67)" fill="white"/>
</g>
<defs>
<clipPath id="clip0_2731_4260">
<rect width="128" height="68" fill="white"/>
</clipPath>
</defs>
</svg>
